<svg xmlns="http://www.w3.org/2000/svg" width="430" height="430" style="width:100%;height:100%;transform:translate3d(0,0,0);content-visibility:visible" viewBox="0 0 430 430"><defs><clipPath id="b"><path d="M0 0h430v430H0z"/></clipPath><clipPath id="d"><path d="M0 0h430v430H0z"/></clipPath><clipPath id="c"><path d="M0 0h430v430H0z"/></clipPath><path id="a" style="display:none"/><mask id="e" mask-type="alpha"><use xmlns:ns1="http://www.w3.org/1999/xlink" ns1:href="#a"/></mask></defs><g clip-path="url(#b)"><g clip-path="url(#c)" style="display:block" transform="translate(0 -1)"><g style="display:block"><path fill="none" stroke="#121331" stroke-width="7" d="m375 375-80.5-80.5" class="primary"/><path fill="#B26836" d="M307.825 321.964c-3.905 3.905-3.905 10.237 0 14.142l45.962 45.962c3.905 3.905 10.237 3.905 14.142 0l14.142-14.142c3.905-3.905 3.905-10.237 0-14.142l-45.962-45.962c-3.905-3.905-10.237-3.905-14.142 0z" class="quaternary"/><g opacity=".5" style="mix-blend-mode:multiply"><path fill="#B26836" d="m307.825 336.106 45.962 45.962c3.905 3.905 10.237 3.905 14.142 0l7.071-7.071-60.104-60.104-7.071 7.071c-3.905 3.905-3.905 10.237 0 14.142" class="quaternary" opacity="1"/></g><path fill="none" stroke="#121331" stroke-width="7" d="M307.825 321.964c-3.905 3.905-3.905 10.237 0 14.142l45.962 45.962c3.905 3.905 10.237 3.905 14.142 0l14.142-14.142c3.905-3.905 3.905-10.237 0-14.142l-45.962-45.962c-3.905-3.905-10.237-3.905-14.142 0z" class="primary"/></g><g style="display:block"><path fill="#4BB3FD" d="M192.497 51.5c77.32 0 140 62.68 140 140s-62.68 140-140 140-140-62.68-140-140 62.68-140 140-140" class="secondary"/><g opacity=".5" style="mix-blend-mode:multiply"><path fill="#4BB3FD" d="M217.497 311.501c33.669 0 64.657-11.475 89.268-30.728-26.54 33.923-67.858 55.727-114.268 55.727-80.081 0-145-64.919-145-145 0-46.413 21.806-87.732 55.732-114.272-19.255 24.612-23.732 48.602-23.732 82.273 0 80.081 57.919 152 138 152" class="secondary" opacity="1"/></g></g><g style="display:block"><path fill="#F24C00" d="M150.375 230.438c-33.517 0-61.533 23.557-68.393 55.017 26.596 31.198 66.184 50.983 110.393 50.983 44.649 0 84.584-20.181 111.183-51.918-7.206-30.991-34.998-54.082-68.183-54.082z" class="tertiary"/><g opacity=".5" style="mix-blend-mode:multiply"><path fill="#F24C00" d="M292.626 296.197c-19.899 10.272-42.481 16.071-66.418 16.071-50.609 0-95.163-25.928-121.102-65.225-11.493 9.754-19.797 23.153-23.124 38.411 26.596 31.198 66.184 50.982 110.393 50.982 38.894 0 74.211-15.313 100.251-40.239" class="tertiary" opacity="1"/></g></g><path fill="none" stroke="#121331" stroke-linecap="round" stroke-linejoin="round" stroke-width="7" d="M110.788 26.575C103.582-4.417 75.79-27.509 42.605-27.509h-85c-33.517 0-61.533 23.558-68.393 55.018" class="primary" style="display:block" transform="translate(193.395 258.009)"/><path fill="#EBE6EF" d="M130 0c0 71.797-58.203 130-130 130S-130 71.797-130 0-71.797-130 0-130 130-71.797 130 0m15 0c0-80.081-64.919-145-145-145S-145-80.081-145 0-80.081 145 0 145 145 80.081 145 0" class="senary" style="display:block" transform="translate(192.497 191.5)"/><g style="display:block"><path fill="#FFC738" d="M191.5 101.5c27.595 0 50 22.405 50 50s-22.405 50-50 50-50-22.405-50-50 22.405-50 50-50" class="quinary"/><g opacity=".5" style="mix-blend-mode:multiply"><path fill="#FFC738" d="M211.5 186.5a49.9 49.9 0 0 0 19.034-3.75c-9.163 11.431-23.244 18.75-39.034 18.75-27.614 0-50-22.386-50-50 0-20.875 12.793-38.763 30.967-46.25A49.8 49.8 0 0 0 161.5 136.5c0 27.614 22.386 50 50 50" class="quinary" opacity="1"/></g></g><path fill="none" stroke="#121331" stroke-linecap="round" stroke-linejoin="round" stroke-width="7" d="M0-50c27.595 0 50 22.405 50 50S27.595 50 0 50-50 27.595-50 0s22.405-50 50-50" class="primary" style="display:block" transform="translate(191.5 151.5)"/><path fill="none" stroke="#121331" stroke-width="7" d="M0-145c80.025 0 145 64.975 145 145S80.025 145 0 145-145 80.025-145 0-80.025-145 0-145z" class="primary" style="display:block" transform="translate(192.497 191.5)"/></g><g clip-path="url(#d)" style="display:none"><g style="display:none"><path fill="none" class="primary"/><path class="quaternary"/><path class="quaternary" style="mix-blend-mode:multiply"/><path fill="none" class="primary"/></g><g style="display:none"><path class="secondary"/><path class="secondary" style="mix-blend-mode:multiply"/></g><path class="tertiary" style="display:none"/><g mask="url(#e)" style="mix-blend-mode:multiply;display:none"><path class="tertiary"/></g><path fill="none" class="primary" style="display:none"/><path class="senary" style="display:none"/><g style="display:none"><path class="quinary"/><path class="quinary" style="mix-blend-mode:multiply"/></g><path fill="none" class="primary" style="display:none"/><path fill="none" class="primary" style="display:none"/></g></g></svg>